<svg xmlns="http://www.w3.org/2000/svg" width="256" height="256" viewBox="0 0 100 100"><rect width="100" height="100" rx="20" fill="#f5a623"></rect><path fill="#ffffff" d="M74.10 19.30L74.10 19.30Q74.80 20.40 75.35 22.20Q75.90 24 75.90 26.10L75.90 26.10Q75.90 29.90 74.25 31.60Q72.60 33.30 69.80 33.30L69.80 33.30L58.50 33.30L58.50 79.80Q57.40 80.10 55.10 80.40Q52.80 80.70 50.40 80.70L50.40 80.70Q45.10 80.70 43.05 78.90Q41 77.10 41 72.40L41 72.40L41 33.30L25.90 33.30Q25.20 32.20 24.65 30.40Q24.10 28.60 24.10 26.50L24.10 26.50Q24.10 22.70 25.75 21Q27.40 19.30 30.20 19.30L30.20 19.30L74.10 19.30Z"></path></svg>